<svg width="818" height="1192" viewBox="0 0 818 1192" fill="none" xmlns="http://www.w3.org/2000/svg">
<path fill-rule="evenodd" clip-rule="evenodd" d="M764.154 850.112C764.154 842.02 752.954 827.657 752.934 820.328C762.35 818.645 770.222 805.888 768.136 797.899C764.461 795.09 754.829 789.56 750.845 786.978C726.572 787.714 735.797 753.945 733.05 736.78C730.284 719.986 728.23 702.426 724.182 685.537C716.992 672.023 713.618 656.873 706.746 643.427C703.677 638.971 698.717 634.886 697.232 629.709C682.198 613.289 661.502 603.447 644.47 589.54C651.08 587.424 650.639 578.509 650.212 572.784C651.75 565.315 650.107 555.947 643.295 551.739C640.993 544.239 630.931 541.621 625.047 546.399C621.182 529.076 606.061 518.566 590.221 512.138C590.235 512.087 590.248 512.037 590.263 511.986C574.288 505.646 555.14 502.486 539.201 506.049C547.614 412.301 475.812 408.859 439.371 416.738C420.731 420.768 392.764 433.313 386.411 450.754C382.824 460.601 372.531 492.357 371.065 502.486C343.238 486.607 310.979 465.668 286.843 497.636C282.01 503.207 276.662 507.345 269.43 509.259C246.85 515.118 216.88 515.314 204.046 538.332C196.375 552.592 203.274 561.988 201.213 576.253C99.5696 647.632 14.6286 910.585 33.7006 1032.92C38.2886 1076.7 60.6886 1154.19 115.978 1144.53C144.178 1175.37 617.502 1175.37 666.309 1144.53C706.484 1155.03 747.306 1138.77 764.154 1100.29C785.549 1047.53 762.876 990.546 758.858 936.421C756.417 922.756 752.786 911.909 750.845 897.919C750.036 892.09 752.826 882.392 750.845 877.018C751.779 873.52 764.154 858.203 764.154 850.112Z" fill="#D08B5B"/>
<path fill-rule="evenodd" clip-rule="evenodd" d="M364.257 496.034L365.927 496.748L371.658 499.232L370.457 501.988C367.075 509.744 363.274 517.205 359.108 524.23L358.322 525.542L357.117 527.535L357.178 527.602C357.698 528.178 358.228 528.775 358.769 529.392L421.849 597.17C448.457 625.736 462.505 640.765 463.992 642.259C470.194 648.49 476.292 649.268 481.873 644.012L482.502 643.417L483.536 642.421L484.242 641.728C487.885 638.13 491.505 634.151 496.71 628.148L554.974 545.501L551.294 537.279C544.539 522.095 540.85 513.218 540.228 510.647L539.949 509.385L539.366 506.672L542.025 505.88C551.618 503.023 562.237 503.772 574.283 507.335L574.979 507.543L576.986 508.163C585.147 510.7 589.768 512.406 594.5 514.933C600.941 518.373 605.696 522.644 608.663 528.211C612.076 534.616 614.688 537.836 619.087 540.439L619.432 540.64L619.859 540.88L620.309 541.123C620.699 541.329 621.131 541.547 621.65 541.803L623.497 542.695C629.327 545.489 632.005 547.279 634.299 550.807C636.833 554.702 637.262 558.349 636.48 563.626L636.41 564.082L636.287 564.828L635.811 567.569L635.698 568.264C635.388 570.226 635.336 571.952 635.559 573.402L635.615 573.732L636.891 580.521L634.357 578.912L641.367 584.625C651.176 592.655 657.023 597.637 663.135 603.256L664.825 604.819L665.157 605.128C676.173 615.402 685.119 625.308 692.608 635.883C700.73 647.348 707.611 659.887 713.168 673.243L713.797 674.772L713.848 674.973C722.172 707.594 728.859 740.639 733.891 774.004L734.372 777.233L736.815 793.792L728.774 779.113C727.522 776.828 724.057 774.564 719.734 772.877L719.326 772.721L719.03 772.61L718.413 772.39C713.67 770.739 708.887 770.583 704.406 771.972L703.944 772.122L702.584 772.578L701.375 771.805C699.146 770.382 696.65 769.179 693.907 768.188L693.216 767.945L690.322 766.952L691.372 764.078C692.165 761.906 690.71 757.642 688.614 755.812C685.348 752.979 680.654 752.185 673.364 752.722L672.377 752.801L671.594 752.872L670.421 752.988L666.721 753.385L666.721 753.402C666.675 754.041 666.646 754.628 666.634 755.182L666.628 755.592L666.628 755.992C666.645 757.369 666.763 758.641 666.992 759.828L667.097 760.331L667.931 764.055L664.116 763.987L662.453 763.962C656.883 763.895 651.034 763.983 644.147 764.21L637.349 764.463L620.008 765.196L604.797 765.73L600.264 765.881L600.048 763.013C599.763 759.228 596.527 756.715 590.795 755.599L590.425 755.529L584.437 754.446L589.356 749.982L589.754 749.608L590.165 749.208C594.121 745.269 595.449 741.662 593.821 738.176C591.915 734.09 586.039 732.895 580.641 735.115L580.27 735.271L579.888 735.442C578.873 735.912 577.865 736.502 576.258 737.539L574.206 738.874L573.46 739.35C571.681 740.472 570.504 741.105 569.017 741.719C565.081 743.348 561.405 743.462 555.376 742.709L554.838 742.641L553.558 742.47L550.292 742.015L549.483 741.909L548.663 741.807C542.5 741.074 538.599 741.47 535.304 743.575C533.196 744.921 532.003 746.644 530.161 750.667L529.286 752.607L528.901 753.44C526.685 758.157 525.003 760.42 521.694 762.384C519.581 763.641 517.58 764.392 514.046 765.42L511.529 766.147L510.635 766.417C510.095 766.584 509.647 766.734 509.174 766.904C505.325 768.272 501.843 770.238 498.571 772.874L498.063 773.288L497.512 773.747C494.326 776.435 491.604 779.348 486.955 784.81L483.568 788.805L482.365 790.206L481.37 791.345C481.264 791.466 481.158 791.586 481.052 791.704L480.106 792.758C472.732 800.852 465.354 808.316 457.84 815.234L456.263 816.676L454.639 818.138L453.303 819.323C448.932 823.172 444.212 827.068 436.881 832.954L427.793 840.234L424.934 842.541C416.347 849.496 411.116 853.982 405.786 859.048L404.464 860.314L404.371 860.857C404.32 861.161 404.264 861.511 404.203 861.903C404.203 861.903 399 894 403.724 920.322C408.447 946.644 410.121 935.942 414.901 942.403L416.009 943.889C418.63 947.377 420.651 949.845 422.843 952.137L425.433 954.81L428.411 957.223L430.291 958.36C431.65 959.181 433.005 959.826 434.363 960.289C436.237 960.933 438.74 959.663 439.97 957.427L440.085 957.207L440.887 955.599L442.683 955.547C443.104 955.535 443.533 955.471 443.953 955.354C448.204 954.183 450.319 949.12 448.241 945.189L448.125 944.979L447.049 943.067L446.497 942.105C445.704 940.747 444.971 939.599 444.229 938.586L443.951 938.213L439.816 932.776L450.223 933.747L451.074 933.831L452.244 933.954L455.992 934.381C459.893 934.819 463.659 935.216 467.334 935.575L470.462 935.874L475.934 936.374L477.058 936.486L479.489 936.743L485.311 937.373L487.386 937.586L488.54 937.698C489.652 937.803 490.649 937.888 491.651 937.963L492.751 938.042C501.137 938.613 507.681 938.234 513.623 936.561C523.287 933.825 533.004 928.178 543.523 919.828C554.276 911.291 562.052 903.252 566.731 894.911C566.819 894.754 566.832 894.63 566.771 894.478L566.726 894.383L564.948 891.121L568.51 890.07C571.357 889.23 573.773 888.159 575.804 886.788C582.053 882.583 584.145 874.168 579.614 869.769L579.413 869.581L579.138 869.331L575.31 863.595L580.847 862.778C582.698 862.493 584.324 862.17 585.844 861.774C595.962 859.144 601.161 851.076 596.681 843.313L596.532 843.06L594.723 840.07L597.952 838.735C598.645 838.449 599.361 838.179 600.153 837.901L600.638 837.733L601.124 837.569L602.939 836.968C606.778 835.702 610.535 834.739 614.281 834.081C617.243 833.572 620.207 833.243 623.172 833.095L624.285 833.048L625.525 833.005L625.533 832.969L626.258 832.979L628.796 832.892L628.746 833.022C632.51 833.115 636.293 833.482 640.077 834.119L640.972 834.272C642.286 834.502 643.535 834.74 644.869 835.012L650.644 836.236C651.695 836.454 652.611 836.633 653.52 836.796L654.399 836.949L663.7 838.522L655.199 842.611L654.98 842.719L654.762 842.834L653.823 843.351C648.046 846.616 644.627 850.339 643.825 854.932C642.574 862.098 646.649 865.398 656.259 866.512L657.061 866.599L657.908 866.677L658.465 866.722L682.529 868.352L659.744 872.723C654.226 873.782 648.65 875.213 643.021 876.998C642.583 877.136 642.111 877.306 641.599 877.51L641.207 877.669L638.89 878.628L636.668 880.234C632.768 883.127 631.68 885.997 633.627 888.847L633.761 889.036L634.967 890.688L633.871 892.414C630.724 897.372 631.135 903.689 634.898 908.824C638.038 913.107 643.119 915.833 650.05 917.396L650.587 917.514L652.109 917.839L654.331 918.188L655.942 918.409L657.178 918.554L658.011 918.64L659.293 918.759L662.791 919.054C667.76 919.478 670.312 919.82 673.374 920.585C677.485 921.61 681.106 923.28 685.924 926.127L686.485 926.461L687.672 927.177L689.974 928.592L692.2 929.975L692.952 930.437L693.88 930.998C700.737 935.091 705.257 936.628 710.014 935.91C713.036 935.455 715.572 934.35 717.821 932.592L718.174 932.31L721.624 929.47L721.523 928.894L722.273 927.862C723.711 925.885 729.836 914.351 729.841 914.343C733.794 907.402 737.604 902.609 742.418 899.437L742.834 899.169L743.779 898.59L744.86 898.361L745.405 898.446C746.99 898.694 747.459 899.398 747.907 900.589C748.021 900.893 748.113 901.229 748.202 901.636L748.286 902.04L748.371 902.5L748.503 903.298L748.641 904.233L748.797 905.384L748.966 906.714C749.098 907.786 749.243 909.03 749.408 910.496L751.222 927.208L751.72 931.647L752.181 935.605C752.219 935.926 752.257 936.245 752.295 936.563L752.687 939.769L753.114 943.122C754.216 951.571 755.304 958.367 756.433 963.523L756.64 964.45L756.78 965.051L757.142 966.592C763.614 994.307 766.895 1017.19 767.058 1040.12C767.205 1064.76 761.83 1086.76 750.173 1104.89C739.059 1122.19 722.838 1134.74 704.559 1139.08C694.923 1141.35 685.367 1140.86 677.664 1137.02C676.257 1136.32 675.259 1135.61 673.436 1134.08L672.831 1133.57C670.423 1131.53 669.361 1130.83 668.08 1130.53C667.922 1130.49 667.769 1130.46 667.62 1130.44L667.4 1130.42L664.677 1130.21L664.629 1127.48C664.526 1121.66 661.749 1119.39 662.01 1128.46C662.01 1128.46 662.512 1141.55 662.648 1143.2L662.743 1144.28L662.78 1144.67L661.172 1150.28C590.967 1177.09 183.977 1177.56 121.184 1151.33L119.387 1150.53L108.283 1145.2C108.283 1145.2 130.534 1140.02 115.32 1141.94C99.0002 1144 80.0002 1134 69.7022 1117.16L65.948 1110.97L64.799 1109.04L64.1622 1107.96C62.6317 1105.34 61.5414 1103.34 60.3872 1101.04C55.7304 1091.74 51.8637 1081.73 48.6845 1070.97C42.7683 1050.94 39.669 1029.24 38.7437 1004.7C37.0691 960.31 41.6501 913.459 51.766 864.645C61.5776 817.298 76.4458 771.276 96.0636 727.757C105.87 706.003 116.68 685.197 128.53 665.363L129.804 663.242L131.191 660.95L132.615 658.615L134.046 656.287L135.351 654.184L136.665 652.085L137.991 649.99C150.098 630.965 160.861 616.927 173.303 604.815C184.359 594.052 196.006 583.133 208.245 572.057L207.982 567.42L207.972 567.335C207.713 565.809 203.105 552.772 207.76 542.614L208.291 541.473C212.504 532.555 213.116 534.849 217.147 532.036L217.313 531.919C226.152 525.588 237.417 521.248 250.773 518.352C254.198 517.609 257.423 517.278 261.965 517.097L262.592 517.073L263.415 517.045L266.948 516.938C273.603 516.725 278.592 514.378 282.44 509.521L282.725 509.156L283.013 508.774L283.283 508.403C284.223 507.091 285.121 505.591 286.57 503.017L287.562 501.257L288.039 500.425L288.527 499.587C290.188 496.77 291.368 495.112 293.034 493.299C298.07 487.825 305.882 484.61 314.117 484.075C328.722 483.122 343.1 487.038 364.257 496.034ZM555.928 777.699L554.739 783.554C554.626 784.107 554.564 784.649 554.555 785.178L554.557 785.572L554.641 788.242L551.999 788.634C549.861 788.951 547.741 789.281 545.642 789.626L543.55 789.975L523.821 793.321L541.858 784.259L542.225 784.08L542.324 784.03L543.017 783.699L545.186 782.691L550.522 780.241L555.928 777.699Z" fill="#78E185"/>
<path fill-rule="evenodd" clip-rule="evenodd" d="M540.417 475.75C541.535 480.537 540.514 485.934 540.701 490.847C540.879 495.542 541.433 500.21 542.249 504.836C550.831 500.322 560.973 499.742 570.753 501.195C583.404 503.075 598.043 507.235 607.958 515.687C610.406 517.775 612.434 520.247 614.132 522.972C616.17 526.242 617.471 529.936 620.702 532.279C625.7 535.904 631.896 537.307 636.701 541.324C641.6 545.419 644.641 551.541 645.284 557.859C645.627 561.222 645.072 564.366 644.434 567.646C643.862 570.597 644.143 571.808 644.92 574.649C645.53 576.879 644.366 579.41 642.468 580.64C646.537 583.433 650.551 586.312 654.495 589.308C677.474 606.748 696.905 628.488 710.375 654.068L710.701 654.703L711.077 655.467C714.36 662.211 722.949 681.927 724.016 686.36C724.779 688.675 725.518 690.999 726.205 693.337C728.019 699.533 729.558 705.806 730.833 712.131L731.174 713.858C732.209 719.17 733.99 725.462 733.703 731.124C736.686 746.582 739.329 762.105 741.585 777.693C741.88 779.735 741.067 781.394 739.805 782.495C742.822 782.98 745.82 783.576 748.785 784.177L750.507 784.539L751.369 784.729C757.545 786.122 763.639 788.15 767.684 793.337C772.045 798.948 772.134 806.158 767.754 811.808C764.035 816.608 758.604 818.888 752.934 820.328C751.815 820.608 750.684 820.868 749.554 821.097C748.795 821.257 748.295 820.218 749.014 819.818L750.217 819.153L751.859 818.253C756.133 815.897 760.569 813.238 762.934 808.988C766.145 803.218 763.604 797.877 758.094 794.948C753.481 792.492 747.776 791.863 742.653 791.025L740.538 790.675C735.183 789.82 729.72 789.265 724.315 789.877C719.585 790.417 714.795 792.028 710.974 794.917L710.62 795.195L710.255 795.502C706.904 798.406 702.086 804.928 708.405 806.808C713.235 808.236 719.12 807.881 724.197 808.158L724.854 808.198C729.104 808.488 733.545 808.488 737.844 808.998C739.384 809.177 740.905 809.427 742.395 809.778C746.665 810.788 745.195 816.468 741.434 816.868C740.514 816.968 739.575 817.017 738.634 817.038C736.174 818.888 732.774 819.728 729.865 820.877C727.085 821.978 724.295 823.068 721.485 824.138C723.905 824.248 726.325 824.448 728.735 824.748C729.514 824.837 729.524 825.888 728.735 825.968C722.934 826.558 717.134 827.198 711.354 828.007C702.405 829.248 693.514 830.908 684.825 833.437C678.474 835.294 672.2 837.504 666.115 840.085L664.274 840.877L663.514 841.208C657.992 843.602 650.847 846.403 647.674 851.677C646.014 854.427 645.285 858.677 647.625 861.308C650.127 864.141 655.37 863.818 658.875 863.955L659.155 863.968C666.575 864.328 674.004 864.377 681.434 864.118C697.004 863.568 712.585 861.868 727.875 858.877C730.695 858.328 731.915 862.558 729.075 863.218C711.039 867.408 692.806 869.707 674.301 869.814L672.274 869.818C665.066 871.196 657.996 873.251 650.986 875.57L649.585 876.038C645.445 877.437 638.375 878.828 635.934 882.937C634.315 885.667 634.884 887.538 636.485 888.808C639.304 891.038 645.304 891.457 648.224 891.568C659.924 892.007 671.634 892.087 683.344 891.837C689.195 891.707 695.045 891.498 700.895 891.198C706.615 890.898 712.724 890.048 718.424 890.597C720.875 890.837 721.695 894.437 719.035 895.108C712.005 896.888 704.122 896.733 696.859 896.96L696.024 896.988C688.224 897.267 680.415 897.388 672.615 897.368C665.92 897.341 659.226 897.206 652.538 896.96L646.626 896.725L645.578 896.675C642.427 896.507 639.209 896.143 636.415 894.847C633.835 899.167 635.764 904.957 639.094 908.377C642.264 911.638 646.835 913.238 651.214 914.238C651.625 914.328 652.035 914.417 652.445 914.498C662.065 916.457 671.865 916.288 680.865 920.707C688.434 924.427 695.365 930.627 703.844 932.097C711.424 933.417 716.934 930.078 720.974 923.898C721.195 923.558 721.415 923.218 721.625 922.877C724.804 917.757 727.094 912.118 730.445 907.097C732.155 904.538 734.085 902.078 736.445 900.078C737.504 899.167 744.924 895.228 746.085 894.048C751.075 888.927 746.655 878.158 747.955 871.738C749.474 864.267 756.045 861.638 759.985 855.847C767.474 844.828 746.934 834.507 753.075 822.457C753.155 822.308 753.254 822.198 753.384 822.127C753.924 821.837 754.785 822.198 754.735 822.908C754.054 831.888 762.615 838.068 765.705 845.847C769.224 854.698 763.604 860.058 757.865 865.968C750.504 873.558 755.684 882.058 754.045 891.198C753.831 892.396 753.487 893.452 753.04 894.397C754.298 895.177 755.268 896.469 755.481 898.273C758.005 919.673 760.718 941.007 765.148 962.111L766.096 966.594L767.365 972.576C770.522 987.537 773.47 1002.56 774.03 1017.85C775.789 1030.76 776.487 1043.77 775.445 1056.77C772.285 1096.32 750.174 1137.7 710.004 1149.84C700.705 1152.65 690.844 1153.38 681.304 1151.41C678.035 1150.74 673.455 1149.26 669.344 1147.02C669.589 1149.65 669.783 1152.29 669.864 1154.92C671.219 1156.43 671.831 1158.71 671.06 1160.65C667.784 1159.58 664.806 1157.87 662.125 1155.53L661.681 1155.14C660.091 1149.23 659.626 1142.77 659.395 1136.55L659.335 1134.78C659.274 1133.06 659.235 1131.37 659.174 1129.72C658.835 1119.45 659.075 1109.16 659.604 1098.9L659.994 1091.34C660.887 1073.73 661.614 1056.15 661.125 1038.49C660.565 1018.16 658.825 997.917 656.645 977.698C655.514 967.267 654.235 956.858 652.924 946.448C651.875 938.068 650.115 929.048 650.085 920.408C643.354 918.968 636.745 916.207 632.604 910.558C628.214 904.568 627.565 896.908 631.464 890.767C627.695 885.608 630.785 880.748 635.445 877.468C628.285 873.457 624.295 862.517 623.235 854.908C622.514 849.687 622.285 841.877 624.514 836.007C621.315 836.118 618.115 836.448 614.915 836.998C611.214 837.648 607.585 838.597 604.004 839.778L602.191 840.377C601.277 840.684 600.247 841.045 599.224 841.468C605.695 852.167 597.384 861.868 586.724 864.638C584.695 865.167 582.625 865.538 580.535 865.837C575.825 866.488 571.014 866.687 566.344 867.118C557.405 867.937 548.415 869.108 539.445 869.488C537.474 869.578 536.205 868.658 535.604 867.377C535.585 867.358 535.575 867.347 535.575 867.328C535.365 866.988 535.224 866.627 535.174 866.248C535.205 866.278 535.245 866.298 535.274 866.318C534.844 863.917 536.285 860.998 539.445 860.648C552.395 859.187 565.524 859.118 578.514 858.048L579.346 857.979C583.424 857.627 588.227 856.98 591.455 854.398C594.455 851.998 594.724 848.877 593.524 846.058C593.504 846.127 593.485 846.207 593.474 846.278C593.384 846.837 592.615 846.818 592.365 846.427C591.615 845.288 591.424 844.167 591.615 843.087C590.714 842.048 589.625 841.127 588.445 840.417C583.214 837.238 576.335 836.368 570.384 835.427C563.875 834.398 557.315 833.927 550.745 833.618C537.815 833.007 524.844 834.058 512.125 836.377C511.594 836.468 511.375 835.728 511.895 835.558C516.854 833.917 521.924 832.538 527.054 831.448C526.934 831.427 526.815 831.408 526.695 831.377C526.245 831.267 525.924 830.718 526.075 830.278C526.094 830.207 526.125 830.138 526.155 830.078C523.974 829.078 523.065 825.718 525.705 824.358C533.934 820.108 543.594 818.187 552.625 816.437C561.295 814.767 570.054 813.597 578.825 812.558C593.655 810.818 609.825 810.858 624.094 806.177L624.681 805.98C630.492 803.976 637.429 799.915 637.835 793.058C638.434 782.687 623.024 785.388 616.604 785.638C599.035 786.308 581.485 787.528 563.995 789.408C560.424 789.788 556.854 790.177 553.285 790.578C547.815 791.187 542.335 791.828 536.875 792.507C533.825 792.888 530.705 793.388 527.565 793.868C526.585 794.108 525.625 794.278 524.665 794.368C524.594 794.377 524.535 794.358 524.485 794.328C519.915 794.968 515.325 795.457 510.865 795.318C510.354 795.308 510.035 794.507 510.575 794.267C516.335 791.828 522.745 790.388 529.174 789.257C533.155 786.288 537.964 783.908 541.915 781.608C547.335 778.448 553.545 773.798 559.695 771.908C562.464 769.728 565.604 767.978 568.495 766.788C567.665 765.498 567.365 763.707 567.514 762.198C568.065 756.788 572.395 753.767 577.395 752.707C578.945 752.388 580.735 752.148 582.645 752.058C582.684 751.048 583.134 750.058 584.134 749.318L584.429 749.094L584.639 748.927C587.995 746.201 594.658 738.528 586.634 737.968C582.375 737.667 578.774 740.788 575.384 742.898C568.344 747.288 561.535 747.507 553.495 746.417L549.881 745.898L549.28 745.817C543.467 745.054 537.57 744.949 534.325 750.877C530.844 757.218 529.625 762.998 522.604 766.488C515.895 769.818 508.445 770.478 502.285 775.058C495.684 779.957 490.724 786.837 485.325 792.937C473.415 806.377 459.785 818.248 445.745 829.408L443.247 831.387C430.318 841.605 416.971 851.666 402.495 859.538C402.395 859.587 402.294 859.608 402.205 859.608C401.815 859.568 401.524 859.068 401.875 858.728C418.785 842.298 438.565 828.978 455.934 812.988C463.634 805.898 470.964 798.437 478.014 790.698C484.174 783.908 489.634 776.278 496.815 770.498C500.304 767.687 504.075 765.538 508.294 764.038C512.235 762.627 516.655 761.927 520.285 759.767C527.395 755.548 526.705 745.548 533.815 741.007C539.911 737.112 547.338 738.535 554.097 739.46L554.905 739.568C559.285 740.148 563.815 740.638 567.995 738.908C572.134 737.198 575.464 733.998 579.634 732.298C585.445 729.908 593.684 730.478 596.665 736.868C599.514 742.968 595.625 748.488 591.085 752.538C597.274 753.658 602.705 756.648 603.165 762.748C607.705 762.597 612.235 762.437 616.774 762.278C632.585 761.728 648.474 760.667 664.295 760.948C663.934 759.337 663.774 757.677 663.754 755.988C663.745 755.048 663.785 754.108 663.854 753.148C663.974 751.507 665.054 750.517 666.655 750.347L670.228 749.965L671.424 749.847C678.118 749.214 685.604 749.081 690.705 753.507C693.445 755.898 695.655 761.398 694.315 765.068C697.434 766.138 700.405 767.507 703.115 769.238C708.485 767.437 714.125 767.638 719.524 769.517L720.165 769.746C724.004 771.155 729.444 773.824 731.53 777.632C726.467 743.314 719.644 709.289 711.067 675.675C705.592 662.251 698.674 649.42 690.285 637.578C669.155 607.738 638.714 587.218 611.375 563.628C608.963 566.282 606.364 568.809 603.934 571.24L602.904 572.276C597.954 577.289 592.791 582.086 587.514 586.751C576.485 596.501 564.876 605.5 553.35 614.643C530.115 633.076 509.108 652.649 491.63 676.714C491.316 677.148 490.445 676.895 490.688 676.318C502.676 647.821 527.528 626.156 550.104 606.053C561.976 595.482 574.126 585.166 585.541 574.096C590.863 568.935 596.018 563.596 600.881 557.999L602.091 556.595C605.271 552.873 612.717 541.509 617.638 549.708C618.669 551.423 618.624 553.617 617.638 555.334C616.24 557.774 614.465 560.101 612.524 562.336C619.424 566.089 626.182 570.052 632.792 574.247C632.412 572.226 632.507 569.992 632.86 567.757L632.976 567.047L633.457 564.275C634.148 560.189 634.503 556.39 631.91 552.404C628.668 547.418 622.555 545.863 617.685 542.982C612.075 539.662 609.145 535.22 606.141 529.582C600.388 518.789 587.391 514.461 576.221 510.989L574.815 510.553C564.493 507.354 553.327 505.642 543.007 508.716C543.975 513.222 545.242 517.664 546.825 521.991C548.51 526.597 552.359 531.718 551.965 536.693C551.693 540.136 547.563 543.816 544.136 541.185C539.282 537.461 538.312 531.396 537.011 525.618C535.753 520.03 534.95 514.306 534.608 508.589C534.279 503.079 534.536 497.573 535.216 492.101L535.737 488.082L535.863 487.149C536.43 483.086 537.274 478.822 539.559 475.638C539.779 475.332 540.317 475.325 540.417 475.75ZM399.588 452.907C399.661 453.232 399.712 453.553 399.758 453.874C400.092 455.244 400.217 456.561 400.176 457.884C400.196 458.361 400.161 458.839 400.072 459.312C399.893 460.869 399.518 462.467 399.011 464.214C397.932 467.931 396.696 471.603 395.315 475.22C392.585 482.373 389.362 489.198 385.378 495.74C378.181 507.557 369.032 517.366 358.246 525.845C360.293 527.534 362.294 529.291 364.299 531.016C373.99 539.356 383.419 548.074 392.552 557.022C408.771 572.915 424.664 589.103 440.184 605.679C447.839 613.854 455.352 622.136 462.824 630.474L463.069 630.754L463.334 631.07C465.987 634.278 471.291 641.931 475.248 640.702C477.246 640.08 479.35 637.099 480.712 635.677L483.221 633.061C484.055 632.186 484.883 631.307 485.698 630.415C500.294 614.423 514.105 597.817 527.073 580.46C533.401 571.991 539.518 563.363 545.413 554.585C548.443 550.072 551.417 545.519 554.331 540.928C557.149 536.488 559.428 531.716 563.581 528.402C566.629 525.97 570.852 528.2 570.084 532.187C568.874 538.466 564.528 543.776 561.106 549.083C557.669 554.416 554.151 559.697 550.554 564.922C543.631 574.982 536.408 584.83 528.927 594.48C522.485 602.79 515.763 610.887 508.86 618.82L506.973 620.98C499.548 629.445 492.26 638.431 484.055 646.157C476.708 653.076 468.684 651.06 461.991 644.336C453.526 635.835 445.667 626.641 437.522 617.83C421.246 600.222 404.8 582.748 388.184 565.46L382.722 559.77C376.353 553.122 370.01 546.432 363.833 539.621L363.036 538.733C355.991 530.808 348.828 520.881 338.813 516.852C338.089 516.561 338.355 515.533 339.137 515.677C345.548 516.862 350.9 520.092 355.88 523.951C360.356 516.544 364.35 508.736 367.832 500.75L365.598 499.78C349.614 492.873 331.599 485.909 314.438 487.029C307.522 487.479 300.143 490.099 295.368 495.291C291.044 499.994 288.885 506.336 284.917 511.345C280.372 517.082 274.444 519.664 267.169 519.897L263.631 520.004C259.563 520.136 255.661 520.349 251.534 521.245C240.352 523.669 228.563 527.602 219.185 534.319C215.783 536.755 212.271 540.105 210.626 543.796C208.995 547.453 208.526 551.732 208.367 555.679C208.29 557.603 208.867 560.144 208.385 561.985C208.44 561.774 208.465 561.886 208.472 562.106C209.971 563.288 210.992 565.253 211.103 567.211C220.451 562.339 230.128 558.069 239.993 554.22C250.977 549.935 262.302 546.501 273.629 543.249C284.715 540.068 296.319 538.752 307.62 536.484C309.059 536.195 309.559 538.138 308.218 538.654C296.34 543.216 284.847 548.624 272.87 552.916C260.899 557.207 249.017 561.851 237.393 567.013C214.925 576.994 193.222 589.694 175.521 606.925C158.233 623.755 144.898 644.2 132.496 664.756C120.006 685.457 108.859 706.912 98.924 728.951C79.27 772.55 64.532 818.391 54.829 865.215C45.386 910.781 40.11 957.974 41.867 1004.55C42.701 1026.67 45.403 1048.8 51.687 1070.08C54.689 1080.24 58.447 1090.17 63.195 1099.65C68.202 1109.65 74.948 1118.55 79.52 1128.72C79.896 1129.56 80.04 1130.36 80.019 1131.1C99.519 1148 130.041 1136.61 151.145 1126.53C199.705 1103.31 247.365 1077.9 292.665 1048.74C337.375 1019.96 379.745 987.837 421.115 954.498C417.915 951.198 415.094 947.498 412.615 944.148C407.495 937.228 403.645 929.388 400.995 921.207C397.895 911.627 396.934 901.377 397.815 891.368L398.065 888.537C398.908 879.085 399.881 869.493 401.955 860.257C401.974 860.138 402.065 860.087 402.165 860.087C402.264 860.087 402.365 860.148 402.405 860.257C407.995 878.148 408.445 897.377 414.724 915.038C417.254 922.138 421.174 928.998 425.875 934.888C427.905 937.437 430.285 939.648 432.714 941.808C432.875 940.707 433.094 939.618 433.424 938.548L433.686 937.701C434.011 936.672 434.414 935.529 434.974 934.517C434.184 934.288 433.415 934.038 432.655 933.757C432.054 933.538 431.924 932.568 432.655 932.408C434.645 931.948 436.695 931.718 438.785 931.618C439.115 931.568 439.434 931.558 439.754 931.578C443.665 931.457 447.645 931.738 451.415 931.798C457.945 931.898 464.455 932.017 470.974 932.308C483.455 932.847 497.544 935.238 509.825 932.337C520.985 929.698 531.985 922.257 540.934 915.257C548.754 909.138 554.785 901.868 561.274 894.618C560.808 894.691 560.346 894.76 559.885 894.824L555.7 895.397C550.418 896.103 544.147 896.656 539.955 894.118C538.354 893.148 538.815 890.948 540.445 890.347C544.724 888.778 550.035 890.078 554.594 889.858C558.174 889.687 561.795 889.308 565.325 888.568C566.485 888.328 567.634 888.048 568.774 887.718C577.134 885.308 586.955 876.828 580.315 867.568C580.065 867.218 580.344 866.898 580.684 866.837C580.835 866.808 580.995 866.837 581.125 866.948C588.684 873.207 584.754 884.427 577.604 889.238C575.145 890.898 572.365 892.058 569.485 892.908C570.035 893.917 570.134 895.158 569.474 896.337C563.875 906.318 554.395 915.087 545.514 922.138C536.395 929.377 525.875 936.207 514.565 939.408C501.504 943.087 487.155 940.318 473.905 939.148C466.724 938.517 459.565 937.767 452.395 936.937C450.474 936.718 448.485 936.548 446.464 936.358C448.365 938.858 449.875 941.738 450.865 943.468C454.085 949.087 451.115 956.488 444.875 958.207C444.224 958.388 443.554 958.488 442.895 958.507C441.214 961.877 437.214 964.358 433.514 963.087C431.905 962.538 430.354 961.788 428.865 960.888C405.594 981.328 381.094 1000.51 355.895 1018.49C309.165 1051.83 260.184 1082.28 209.395 1109.05C197.955 1115.08 186.428 1120.95 174.803 1126.59L164.797 1131.41C153.722 1136.74 142.387 1142.04 130.625 1145.35C128.332 1145.99 125.931 1146.51 123.471 1146.91C123.439 1147.13 123.431 1147.34 123.446 1147.54C121.234 1147.84 119.304 1147.88 117.656 1147.68L117.281 1147.63C102.864 1148.64 87.443 1145.12 78.168 1134.59C76.622 1135.67 74.368 1135.79 72.379 1134.23C62.376 1126.38 56.413 1114.43 51.18 1103.02C45.874 1091.45 41.715 1079.39 38.659 1067.03C32.555 1042.35 30.134 1016.9 30.0064 991.513C29.545 893.694 54.043 795.016 96.595 707.197C107.387 684.924 119.283 663.067 132.489 642.13C145.659 621.25 160.952 601.845 180.537 586.617C186.169 582.239 192.028 578.236 198.071 574.548C194.015 572.538 192.404 567.425 192.12 562.883C191.49 552.796 192.692 541.175 198.598 532.664C206.883 520.724 221.714 513.362 235.466 509.782C242.645 507.914 250.071 506.825 257.476 506.457C261.294 506.266 265.261 506.894 269.033 506.482C272.361 506.12 274.419 504.134 276.333 501.523C281.236 494.83 284.428 487.81 291.461 482.904C298.677 477.871 308.028 475.945 316.721 476.467C326.848 477.076 336.087 481.066 345.006 485.651C353.056 489.789 360.87 494.373 368.485 499.263C369.881 495.992 371.196 492.696 372.419 489.389C374.791 482.977 376.854 476.361 378.528 469.733C380.225 463.012 379.977 454.136 385.103 449.082C389.56 444.689 398.143 446.414 399.588 452.907ZM745.067 901.371L745.031 901.379C734.663 907.523 729.705 922.877 724.825 929.587C725.224 931.837 725.504 934.127 726.054 936.257C727.315 941.148 728.964 945.998 730.875 950.658C734.235 958.888 738.445 966.728 742.335 974.707C745.465 981.124 748.532 987.659 750.918 994.414C750.659 994.673 750.42 994.98 750.217 995.361C747.629 1000.21 745.603 999.255 740.828 998.197L740.825 998.187C738.094 989.828 734.155 981.978 730.615 973.957L729.754 971.998L728.903 970.039C725.945 963.174 723.246 956.246 721.674 948.888C720.674 944.198 720.264 939.377 720.205 934.587C717.615 936.718 714.504 938.248 710.585 938.837C702.197 940.104 694.601 934.851 687.767 930.636L686.227 929.694C681.948 927.091 677.707 924.686 672.774 923.457C667.174 922.058 661.384 922.058 655.695 921.347C655.014 921.257 654.325 921.167 653.634 921.058C655.854 928.408 656.884 936.388 658.205 943.748C660.045 954.068 661.545 964.478 662.985 974.858C665.785 994.978 667.735 1015.26 668.724 1035.55C669.682 1055.19 669.2 1074.77 668.489 1094.41L668.134 1103.98C667.85 1111.78 667.616 1119.59 667.754 1127.39C668.134 1127.42 668.514 1127.48 668.895 1127.57C672.835 1128.49 675.524 1132.51 679.125 1134.3C686.724 1138.08 695.905 1138.03 703.995 1136.12C722.395 1131.76 737.695 1118.92 747.774 1103.23C759.875 1084.41 764.315 1062.26 764.174 1040.1C764.008 1015.16 759.969 991.312 754.346 967.235L753.985 965.698C749.253 945.639 746.289 901.562 745.067 901.371ZM229.826 851.05C229.931 857.758 227.203 864.933 225.704 871.451C224.09 878.474 222.48 885.497 220.848 892.517L219.381 898.807C218.158 904.048 216.953 909.293 215.873 914.566C214.985 918.901 214.613 924.614 213.158 929.393C230.465 922.393 247.799 915.464 265.104 908.487C286.424 899.888 307.844 891.527 329.214 883.067C350.504 874.647 371.674 865.067 393.395 857.867C398.565 856.147 402.065 864.397 397.114 866.686C375.054 876.917 351.714 884.927 329.114 893.888L296.423 906.866C266.454 918.758 236.464 930.591 206.324 942.017C185.794 949.798 165.344 957.808 144.684 965.197C134.834 968.718 124.895 972.048 115.094 975.697C106.884 978.757 98.0044 983.298 94.9644 992.117C94.8044 992.577 94.1744 992.388 94.2444 991.917C95.4744 983.377 101.815 978.037 108.964 973.997C118.453 968.622 128.875 964.71 138.891 960.399L140.254 959.808C160.707 950.888 181.325 942.329 202.004 933.913C201.799 933.413 201.678 932.877 201.669 932.317L201.61 932.333C201.234 928.51 202.987 925.101 204.248 921.545L207.865 911.341C210.275 904.546 212.437 897.667 214.664 890.811C216.993 883.645 219.344 876.486 221.691 869.326C223.679 863.261 225.015 856.032 228.416 850.611C228.826 849.958 229.956 850.325 229.826 851.05ZM628.115 835.968L627.857 837.27C627.557 838.793 627.275 840.328 627.205 841.868C627.004 845.898 627.464 849.927 628.535 853.818C629.585 857.667 631.054 861.388 633.145 864.798C635.125 868.007 637.995 870.528 639.825 873.818C640.014 874.167 640.134 874.517 640.184 874.858C640.884 874.568 641.575 874.308 642.245 874.097C647.825 872.328 653.524 870.847 659.304 869.738L658.387 869.676L657.795 869.628C648.138 868.811 639.026 865.652 640.995 854.377C642.109 848.003 647.111 843.729 652.473 840.7L653.145 840.328C653.434 840.167 653.735 840.007 654.024 839.868C649.174 839.048 645.655 838.038 639.705 837.038C635.844 836.388 631.974 836.028 628.115 835.968ZM186.924 697.085C196.42 716.271 203.564 736.671 208.954 757.368C211.557 767.363 213.765 777.457 215.541 787.631L216.124 791.028L216.455 792.872C218.114 801.941 220.221 811.765 217.784 820.613C216.989 823.504 212.189 824.648 210.845 821.521C206.791 812.081 207.361 801.23 206.186 791.128C204.951 780.528 203.266 769.978 201.166 759.515C197.133 739.411 191.471 719.777 185.16 700.291L184.456 698.126C183.92 696.683 186.254 695.732 186.924 697.085ZM551.924 782.917C549.094 784.248 546.264 785.468 543.764 786.687C543.575 786.788 543.375 786.877 543.174 786.978C546.004 786.498 548.844 786.048 551.684 785.627C551.655 784.707 551.745 783.798 551.924 782.917ZM662.658 773.308C662.233 773.446 661.857 773.669 661.53 773.975L661.371 774.135C660.981 774.498 660.705 774.927 660.544 775.422C660.294 775.9 660.178 776.414 660.199 776.964L660.342 778.027C660.532 778.705 660.875 779.292 661.371 779.792L662.18 780.417C662.726 780.733 663.31 780.912 663.931 780.954L664.199 780.964L665.009 780.964C665.472 780.948 665.907 780.834 666.316 780.619C666.741 780.481 667.117 780.258 667.444 779.952L667.603 779.792C667.994 779.429 668.269 779 668.43 778.505C668.645 778.096 668.76 777.66 668.775 777.197L668.775 776.964L668.632 775.9C668.466 775.306 668.182 774.782 667.782 774.326L667.603 774.135L666.794 773.509C666.248 773.193 665.664 773.014 665.043 772.973L664.775 772.964H664.199C663.648 772.943 663.134 773.058 662.658 773.308ZM636.639 771.955C634.514 772.345 633.309 774.921 633.846 776.874C634.44 779.037 636.495 779.998 638.56 779.702L638.766 779.669C641.184 779.224 643.553 779.396 645.856 780.245C647.882 780.993 650.239 779.408 650.776 777.451C651.39 775.217 650.017 773.281 647.982 772.531C644.332 771.183 640.417 771.259 636.639 771.955ZM215.328 629.9C220.167 636.991 223.188 646.417 226.168 654.52L226.466 655.326C229.634 663.842 232.69 672.425 235.54 681.054C241.229 698.279 248.643 716.304 250.013 734.5C250.266 737.858 245.127 739.204 243.637 736.228C239.356 727.671 237.054 718.751 234.521 709.577C232.105 700.828 229.588 692.109 227.07 683.389C224.553 674.674 222.118 665.933 219.639 657.207C217.228 648.718 213.871 639.279 213.319 630.444C213.247 629.296 214.772 629.084 215.328 629.9ZM324.537 572.815C330.996 577.298 336.286 583.855 341.752 589.463C347.297 595.153 352.768 600.896 358.188 606.706C367.245 616.416 376.138 626.285 385.323 635.877C403.627 654.992 424.334 672.582 449.596 681.566C455.709 683.74 453.031 693.55 446.904 691.33C421.065 681.962 399.66 664.641 380.779 645.046C371 634.898 362.027 624.054 353.278 613.017C349.184 607.852 345.12 602.671 341.115 597.44L338.718 594.295C333.681 587.649 327.518 581.025 323.832 573.521C323.625 573.099 324.079 572.498 324.537 572.815Z" fill="black"/>
<path fill-rule="evenodd" clip-rule="evenodd" d="M655.901 270.053C652.111 207.851 631.927 137.33 572.523 106.79C441.564 54.232 269.38 186.588 260.264 321.8C257.086 368.084 282.784 418.659 329.745 431.527C340.186 445.36 355.976 453.808 371.561 461.14C557.188 557.447 677.095 479.16 655.901 270.053V270.053Z" fill="#D08B5B"/>
<path fill-rule="evenodd" clip-rule="evenodd" d="M698.189 231.36C691.629 213.14 684.699 195.06 677.409 177.12C670.309 159.66 663.896 141.823 655.079 125.19C602.419 25.8501 506.659 25.8501 457.159 38.8301C431.489 27.7701 383.408 30.8898 356.679 40.8701C313.407 57.0271 260.658 120.585 242.623 149.141C202.804 212.19 177.954 296.107 204.404 368.963C207.861 378.485 212.27 387.304 217.234 395.803C214.107 400.041 210.508 404.055 206.521 407.999C194.673 419.721 182.825 431.057 172.59 444.278C162.419 457.417 153.987 471.389 147.71 486.794C135.874 515.846 135.304 548.742 150.952 576.463C164.566 600.583 188.683 618.544 215.854 620.257C217.249 620.451 218.646 620.629 220.049 620.77C223.649 626.7 228.039 632.16 233.049 636.92C248.399 651.52 284.989 659.01 305.859 659.49C306.929 660.35 308.009 661.21 309.089 662.06C321.859 672.11 335.259 682.25 349.919 689.4C359.849 694.25 372.869 698.3 383.229 694.8C387.929 697.94 395.639 697.28 400.299 694.71C407.959 690.49 414.189 682.89 417.979 675.11C427.169 656.22 424.959 635.55 422.599 615.37C419.999 593.08 417.499 570.78 414.959 548.49C412.969 531.06 410.889 513.34 405.589 496.55C402.849 487.85 399.259 479.49 394.619 471.63C394.739 470.97 394.719 470.31 394.529 469.69C393.009 464.75 389.869 462.16 386.149 458.8C385.669 458.37 385.189 457.93 384.719 457.48C382.859 455.36 380.869 453.39 378.739 451.72C377.919 450.89 377.109 450.05 376.299 449.21C369.569 442.16 363.209 434.75 357.559 426.81C352.079 419.11 347.129 411.07 342.419 402.88C337.629 394.55 334.459 385.36 329.679 377.09C329.269 376.38 328.229 376.24 327.649 376.83C326.169 378.36 325.219 380.06 325.399 381.85L324.659 381.96C324.379 379.26 321.889 377.06 318.509 377.65C313.449 378.53 309.289 378.86 304.909 377.18C305.679 372.07 306.389 366.95 307.089 361.82C308.369 352.38 309.559 342.91 310.579 333.44C313.049 334.03 315.499 334.88 317.899 335.96C321.319 337.49 324.549 339.55 327.309 342.08C330.029 344.58 331.909 347.95 335.229 349.69C339.049 351.68 343.659 348.39 342.539 344.07C340.269 335.34 327.419 330.34 319.469 328.69C316.739 328.12 313.949 327.88 311.159 327.94C311.789 321.86 312.349 315.78 312.809 309.69C313.029 306.81 313.229 303.93 313.419 301.04C319.599 299.17 326.219 298.61 332.649 299.49C334.769 301.18 336.889 302.85 338.939 304.54C345.449 309.92 351.929 315.33 358.329 320.84C358.909 321.33 359.479 321.82 360.059 322.32C363.859 325.59 368.599 322.35 367.959 317.72C362.739 279.78 385.979 249.6 413.189 226.22C443.309 200.33 498.069 197.315 533.889 152.47C550.386 155.828 587.219 165.8 602.419 190.02C623.699 223.96 620.919 254.37 622.539 292.87C624.159 331.4 628.279 371.59 619.529 409.58C611.459 444.61 589.609 474.54 555.709 488.3C554.869 488.64 554.019 488.97 553.169 489.29C535.639 495.9 516.509 497.77 498.069 494.29C477.659 490.43 460.619 481.09 443.639 469.6C442.659 468.95 441.229 470.29 441.969 471.27C464.349 500.93 508.309 510.84 543.179 503.01C544.809 502.64 546.429 502.24 548.039 501.8C540.239 524.23 541.809 548.85 551.969 570.69C558.079 583.83 567.399 595.2 578.749 604.17C591.259 614.05 606.779 622.03 615.459 635.9C623.409 648.61 621.049 662.89 607.439 670.23C604.009 672.09 602.689 678.1 606.089 680.74C607.389 681.74 608.689 682.76 610.019 683.76C617.639 689.51 638.569 700.31 641.959 700.71C672.059 704.28 692.299 682.18 705.269 656.11C720.499 625.51 716.539 588.22 699.759 559.08C686.299 535.7 659.789 512.66 670.329 483.07C674.089 472.5 681.779 463.49 689.249 455.35C697.769 446.08 706.929 437.4 715.099 427.8C723.219 418.27 730.419 407.9 734.439 395.94C740.309 378.46 737.389 359.56 732.979 342.11C723.529 304.65 711.259 267.69 698.189 231.36Z" fill="black"/>
<path fill-rule="evenodd" clip-rule="evenodd" d="M479 349C505.51 349 527 330.196 527 307C527 283.804 505.51 265 479 265C452.49 265 423.801 283.041 423.801 306.237C423.801 316.079 431.555 333.278 438.035 340.438C446.826 350.153 463.739 349 479 349Z" fill="white"/>
<path fill-rule="evenodd" clip-rule="evenodd" d="M593.256 340.962C613.549 340.962 630 323.957 630 302.981C630 282.005 613.549 265 593.256 265C572.962 265 551 281.315 551 302.291C551 311.191 556.936 326.745 561.896 333.219C568.626 342.004 581.573 340.962 593.256 340.962Z" fill="white"/>
<path fill-rule="evenodd" clip-rule="evenodd" d="M478.33 375.091C478.54 374.897 478.872 374.829 479.125 374.988C483.452 377.724 483.964 386.925 484.013 392.239C485.803 392.705 487.571 393.235 489.243 393.605C492.793 394.39 496.363 395.075 499.926 395.798L502.597 396.349C511.523 398.23 520.616 399.622 529.712 400.319C538.54 400.995 547.624 401.242 556.427 400.105C560.207 399.616 563.965 398.8 567.618 397.711C571.936 396.423 575.375 394.288 579.391 392.418C589.445 387.735 597.871 401.458 588.195 407.48C579.889 412.647 568.557 414.51 558.969 415.31C549.169 416.127 539.407 415.23 529.725 413.68C519.258 412.003 509.006 409.428 499.079 405.694C494.881 404.115 490.819 402.201 486.853 400.109L485.774 399.534C485.115 399.18 484.428 398.821 483.737 398.457C482.994 405.084 480.853 411.485 478.266 417.638L478.205 417.53C476.79 422.384 471.678 425.387 466.592 423.243C460.622 420.728 460.169 414.126 463.642 409.44L463.808 409.222C467.892 403.968 470.451 397.45 472.675 391.237C473.816 388.052 474.872 384.79 475.788 381.532C476.451 379.175 476.475 376.804 478.33 375.091ZM632.162 322.318C628.623 333.012 620.906 341.247 610.156 344.867C599.502 348.456 587.653 347.148 576.762 345.208C574.38 344.783 571.965 344.314 569.555 343.768C571.527 344.99 573.27 346.71 574.937 348.528C577.403 351.217 579.639 354.05 580.317 357.416C580.99 360.755 579.93 363.295 577.996 365.213C575.021 368.162 570.222 369.751 566.158 370.629C557.056 372.596 547.939 372.29 538.882 370.273C536.57 369.759 535.001 368.518 534.121 366.901C533.052 364.937 532.964 362.493 533.578 360.268C534.191 358.044 535.516 355.994 537.439 354.859C539.022 353.925 541.002 353.669 543.249 354.416C547.759 355.917 552.237 356.911 557.001 357.026C559.017 357.073 561.047 357.013 563.061 356.828C564.199 356.724 565.335 356.579 566.465 356.397C565.799 355.512 565.153 354.609 564.522 353.698C563.775 352.62 563.049 351.529 562.355 350.419C560.349 347.206 558.678 343.904 557.21 340.417C556.739 339.301 556.303 338.179 555.884 337.054C555.823 336.891 555.763 336.729 555.703 336.566C555.574 336.458 555.445 336.349 555.318 336.239C552.447 333.755 550.04 330.695 548.337 326.905C543.727 316.639 544.478 303.897 547.275 293.237C549.517 284.693 554.465 276.79 561.002 271.421C562.143 269.543 562.897 268.404 563.82 267.444C567.577 263.536 572.82 260.899 577.936 259.296C589.362 255.713 601.807 258.283 611.493 265.106C620.436 271.405 627.437 280.852 631.221 291.359C634.804 301.309 635.503 312.223 632.162 322.318ZM476.522 257.331C490.111 257.215 503.937 261.227 514.964 269.256C525.514 276.939 533.796 288.282 533.786 301.793C533.776 314.948 526.744 327.882 518.945 338.067C510.191 349.501 498.751 355.014 484.367 355.141C476.89 355.208 469.358 354.546 461.935 353.636L457.953 353.134C452.468 352.427 446.927 351.59 441.729 349.705C416.985 340.73 416.219 308.342 425.383 287.639C432.459 271.655 450.368 256.067 468.226 257.938C470.917 257.561 473.68 257.356 476.522 257.331ZM499.473 272.562C482.456 264.924 461.78 267.211 445.273 275.362C438.734 282.496 433.955 291.487 432.021 299.741C429.956 308.552 430.258 318.043 433.363 326.583C437.154 337.008 446.489 339.59 456.559 341.192L460.468 341.806L462.109 342.055C472.003 343.531 482.821 344.678 492.33 342.831C502.927 340.77 509.657 332.209 514.955 323.432L515.202 323.02C520.703 313.823 525.308 302.638 520.694 292.1C516.771 283.143 508.202 276.48 499.473 272.562ZM599.913 275.224C594.073 271.988 587.412 271.4 581.106 273.566C578.393 274.497 576.049 276.007 573.776 277.7L572.869 278.387C570.074 280.532 567.463 281.619 565.366 284.517L565.095 284.906C564.037 286.486 562.186 287.118 560.5 286.908C558.535 292.325 557.724 298.183 557.708 303.95L557.71 304.714L557.72 305.493C557.846 312.31 559.035 320.649 564.398 325.218C569.291 329.384 576.698 330.384 583.311 330.964L588.408 331.389L589.763 331.491C596.733 331.976 604.371 331.811 610.213 327.685C615.301 324.091 617.701 317.991 618.323 311.968C619.794 297.739 612.592 282.249 599.913 275.224ZM472.795 276.538C482.166 271.754 493.423 272.953 501.361 278.949C500.656 279.087 499.962 279.263 499.27 279.61C497.469 280.513 496.351 282.321 495.925 284.245C495.445 286.42 496.572 288.479 498.719 289.165C500.587 289.761 502.802 290.034 504.537 288.899C505.446 288.305 506.081 287.522 506.498 286.536L506.557 286.391L506.63 286.285L506.658 286.235C506.664 286.216 506.632 286.252 506.58 286.333C506.633 286.21 506.682 286.087 506.731 285.962C506.804 285.813 506.874 285.663 506.931 285.508C507.032 285.421 507.124 285.324 507.217 285.227C508.659 287.446 509.791 289.952 510.51 292.74C515.124 310.635 496.204 329.206 479.301 331.064C472.913 331.766 467.088 330.245 462.254 327.247C462.298 327.188 462.347 327.135 462.387 327.073C464.329 327.422 466.647 326.553 467.352 324.387C469.151 318.862 467.306 312.399 461.286 310.594C457.412 309.432 453.448 310.716 450.679 313.364C448.585 308.239 447.836 302.469 448.827 296.69C450.225 288.537 455.143 281.19 462.797 277.798C466.524 276.145 469.736 275.798 472.795 276.538ZM571.482 287.579L571.767 287.129C574.663 282.673 580.198 277.207 585.935 278.71C586.741 278.921 587.531 279.261 588.243 279.702C591.395 279.274 594.695 279.99 597.405 281.657L597.331 281.844C597.319 281.875 597.309 281.907 597.301 281.94C597.054 283.024 597.198 284.026 597.704 285.022C598.253 286.101 599.036 287.124 600.096 287.743C600.823 288.167 601.678 288.39 602.516 288.373C603.745 288.351 604.827 287.81 605.715 286.984C606.198 286.536 606.535 285.879 606.721 285.203C607.159 285.623 607.584 286.091 607.989 286.622C614.64 295.368 613.721 309.422 605.918 317.218C605.603 317.532 605.268 317.816 604.937 318.106C601.769 322.467 596.886 325.427 591.021 326.026C585.591 326.581 580.161 324.975 575.997 321.683C576.332 321.505 576.645 321.274 576.915 320.968C577.626 320.163 578.211 319.369 578.643 318.386C578.751 318.138 578.856 317.889 578.955 317.638L579.1 317.259C579.125 317.189 579.347 316.55 579.288 316.662L579.274 316.688L579.353 316.504C580.098 314.643 579.797 312.517 578.028 311.35L577.833 311.229C577.255 310.892 576.539 310.733 575.814 310.731C574.008 308.52 571.32 308.013 568.797 308.659L568.708 307.945C568.695 307.826 568.683 307.706 568.675 307.587C566.72 301.106 567.663 293.741 571.482 287.579ZM484.685 222.329L485.334 222.228C490.243 221.518 493.58 222.335 496.771 226.53C498.292 228.529 497.823 231.548 496.771 233.591C493.373 240.192 484.025 238.827 477.729 240.138C471.582 241.417 465.45 243.158 459.698 245.692C453.829 248.278 448.32 251.337 442.948 254.83C438.089 257.991 433.682 262.742 428.131 264.581C427.881 264.664 427.58 264.44 427.596 264.175C427.991 257.862 433.264 252.067 437.348 247.571C442.072 242.372 447.817 237.756 453.8 234.086C459.974 230.3 466.648 227.183 473.558 225.009C477.197 223.864 480.92 222.954 484.685 222.329ZM559.461 230.901C565.641 221.864 581.004 223.597 590.069 226.012C601.435 229.038 613.751 235.159 621.721 244.019C628.86 251.956 618.179 262.268 610.151 255.589L608.009 253.812L606.638 252.686C600.475 247.652 594.372 243.097 586.861 239.741C578.055 235.808 569.132 233.892 559.825 231.796C559.459 231.714 559.244 231.218 559.461 230.901Z" fill="black"/>
</svg>
